<svg width="711" height="711" viewBox="0 0 711 711" fill="none" xmlns="http://www.w3.org/2000/svg">
<circle cx="355.5" cy="355.5" r="355.5" fill="black"/>
<path d="M272.607 162.233L315.815 144.606L289.238 177.528L280.437 247.964L259.8 246.056L272.607 162.233Z" fill="#0BD2CE"/>
<path d="M291.26 294.126L318.764 306.074L325.151 326.079L280.438 304.169L291.26 294.126Z" fill="#0BD2CE"/>
<path d="M298.126 313.14L318.545 306.596L331.539 343.226L310.902 350.847L298.126 313.14Z" fill="#0BD2CE"/>
<path d="M232.002 289.944L308.174 340.708L311.432 351.241L222.457 305.121L232.002 289.944Z" fill="#0BD2CE"/>
<path d="M331.357 365.319L310.902 350.847L331.539 343.226L331.357 365.319Z" fill="#0BD2CE"/>
<path d="M195.924 237.338L219.018 237.338L233.011 292.257L222.458 305.121L195.924 237.338Z" fill="#0BD2CE"/>
<path d="M245.551 138.89L231.793 188.426L219.018 237.486L195.924 237.486L245.551 138.89Z" fill="#0BD2CE"/>
<path d="M272.576 162.229L346.279 131.745L346.279 150.798L281.411 180.551L272.576 162.229Z" fill="#0BD2CE"/>
<path d="M306.479 223.196L346.703 190L346.703 208L318.184 234.428L306.479 223.196Z" fill="#0BD2CE"/>
<path d="M318.061 234.238L346.703 208L346.406 222.356L325.833 241.751L318.061 234.238Z" fill="#4444A4"/>
<path d="M221.475 413.719L269.472 381.962L293.213 390.857L236.707 433.248L221.475 413.719Z" fill="#0BD2CE"/>
<path d="M221.475 413.719L245.551 427.056L285.351 544.228L267.662 549.943L221.475 413.719Z" fill="#0BD2CE"/>
<path d="M315.816 603.29L267.662 549.943L285.351 544.228L315.816 603.29Z" fill="#0BD2CE"/>
<path d="M179.866 330L292.756 391L261.834 389.094L179.866 390.047V330Z" fill="#0BD2CE"/>
<path d="M148.88 470.078L180.201 329.889L202.99 359.832L148.88 470.078Z" fill="#0BD2CE"/>
<path d="M273.558 428.961L298.55 437.535L310.901 466.113L294.195 472.781L273.558 428.961Z" fill="#0BD2CE"/>
<path d="M273.558 428.961L312.867 413.719L317.289 428.961L323.185 447.061L278.294 438.725L273.558 428.961Z" fill="#0BD2CE"/>
<path d="M331.539 499.455L294.195 472.781L310.902 466.113L331.539 499.455Z" fill="#0BD2CE"/>
<path d="M259.801 246.059L280.438 247.964L297.144 298.453L280.438 304.169L259.801 246.059Z" fill="#0BD2CE"/>
<path d="M419.8 162.233L376.592 144.606L403.169 177.528L411.97 247.964L432.607 246.056L419.8 162.233Z" fill="#0BD2CE"/>
<path d="M401.148 294.126L373.644 306.074L367.257 326.079L411.97 304.169L401.148 294.126Z" fill="#0BD2CE"/>
<path d="M394.281 313.14L373.863 306.596L360.869 343.226L381.506 350.847L394.281 313.14Z" fill="#0BD2CE"/>
<path d="M460.406 289.944L384.234 340.708L380.976 351.241L469.95 305.121L460.406 289.944Z" fill="#0BD2CE"/>
<path d="M361.051 365.319L381.506 350.847L360.869 343.226L361.051 365.319Z" fill="#0BD2CE"/>
<path d="M496.483 237.338L473.39 237.338L459.396 292.257L469.95 305.121L496.483 237.338Z" fill="#0BD2CE"/>
<path d="M446.856 138.89L460.614 188.426L473.389 237.486L496.483 237.486L446.856 138.89Z" fill="#0BD2CE"/>
<path d="M419.832 162.229L346.128 131.745L346.128 150.798L410.997 180.551L419.832 162.229Z" fill="#0BD2CE"/>
<path d="M385.928 223.196L346.699 190.005L346.672 207.917L374.19 234.462L385.928 223.196Z" fill="#0BD2CE"/>
<path d="M374.624 234.238L346.703 208L346.128 222.356L366.853 241.751L374.624 234.238Z" fill="#4444A4"/>
<ellipse cx="8.99122" cy="10" rx="8.99122" ry="10" transform="matrix(-1 0 0 1 355.695 242)" fill="#0BD2CE"/>
<ellipse cx="9.99024" cy="15.5" rx="9.99024" ry="15.5" transform="matrix(-1 0 0 1 355.695 393)" fill="white"/>
<path d="M470.933 413.719L422.935 381.962L399.195 390.857L455.701 433.248L470.933 413.719Z" fill="#0BD2CE"/>
<path d="M470.933 413.719L446.856 427.056L407.056 544.228L424.745 549.943L470.933 413.719Z" fill="#0BD2CE"/>
<path d="M376.592 603.29L424.745 549.943L407.056 544.228L376.592 603.29Z" fill="#0BD2CE"/>
<path d="M512.542 330L399.652 391L430.574 389.094L512.542 390.047V330Z" fill="#0BD2CE"/>
<path d="M543.527 470.078L512.207 329.889L489.418 359.832L543.527 470.078Z" fill="#0BD2CE"/>
<path d="M418.849 428.961L393.858 437.535L381.506 466.113L398.212 472.781L418.849 428.961Z" fill="#0BD2CE"/>
<path d="M418.849 428.961L379.54 413.719L375.118 428.961L369.222 447.061L414.113 438.725L418.849 428.961Z" fill="#0BD2CE"/>
<path d="M360.869 499.455L398.212 472.781L381.506 466.113L360.869 499.455Z" fill="#0BD2CE"/>
<path d="M432.607 246.059L411.97 247.964L395.264 298.453L411.97 304.169L432.607 246.059Z" fill="#0BD2CE"/>
</svg>
